<mxfile host="65bd71144e">
    <diagram id="IMA06GKuvG5ogUwGVKnu" name="Page-1">
        <mxGraphModel dx="1733" dy="1034" grid="1" gridSize="10" guides="1" tooltips="1" connect="1" arrows="1" fold="1" page="1" pageScale="1" pageWidth="850" pageHeight="1100" math="0" shadow="0">
            <root>
                <mxCell id="0"/>
                <mxCell id="1" parent="0"/>
                <mxCell id="2" value="Adventure.js" style="rounded=0;whiteSpace=wrap;html=1;" vertex="1" parent="1">
                    <mxGeometry x="360" y="100" width="120" height="30" as="geometry"/>
                </mxCell>
                <mxCell id="3" value="&lt;font style=&quot;font-size: 30px;&quot;&gt;Wilderness Dependency Graph&lt;/font&gt;" style="rounded=1;whiteSpace=wrap;html=1;" vertex="1" parent="1">
                    <mxGeometry x="60" y="20" width="770" height="60" as="geometry"/>
                </mxCell>
                <mxCell id="6" value="" style="endArrow=classic;html=1;fontSize=30;exitX=0.5;exitY=1;exitDx=0;exitDy=0;" edge="1" parent="1" source="2">
                    <mxGeometry width="50" height="50" relative="1" as="geometry">
                        <mxPoint x="450" y="360" as="sourcePoint"/>
                        <mxPoint x="480" y="200" as="targetPoint"/>
                        <Array as="points"/>
                    </mxGeometry>
                </mxCell>
                <mxCell id="7" value="" style="endArrow=classic;html=1;fontSize=30;exitX=0.5;exitY=1;exitDx=0;exitDy=0;" edge="1" parent="1" source="2">
                    <mxGeometry width="50" height="50" relative="1" as="geometry">
                        <mxPoint x="430" y="140" as="sourcePoint"/>
                        <mxPoint x="360" y="200" as="targetPoint"/>
                        <Array as="points"/>
                    </mxGeometry>
                </mxCell>
                <mxCell id="8" value="&lt;font style=&quot;font-size: 12px;&quot;&gt;wilderness-functions.js&lt;/font&gt;" style="rounded=0;whiteSpace=wrap;html=1;fontSize=30;" vertex="1" parent="1">
                    <mxGeometry x="425" y="200" width="140" height="30" as="geometry"/>
                </mxCell>
                <mxCell id="10" value="&lt;span style=&quot;font-size: 12px;&quot;&gt;wilderness-data.js&lt;/span&gt;" style="rounded=0;whiteSpace=wrap;html=1;fontSize=30;" vertex="1" parent="1">
                    <mxGeometry x="270" y="200" width="140" height="30" as="geometry"/>
                </mxCell>
                <mxCell id="11" value="&lt;font style=&quot;font-size: 30px;&quot;&gt;Wilderness Sequence Diagram&lt;/font&gt;" style="rounded=1;whiteSpace=wrap;html=1;" vertex="1" parent="1">
                    <mxGeometry x="40" y="260" width="770" height="60" as="geometry"/>
                </mxCell>
                <mxCell id="12" value="Adventure.js" style="rounded=0;whiteSpace=wrap;html=1;" vertex="1" parent="1">
                    <mxGeometry x="360" y="340" width="120" height="30" as="geometry"/>
                </mxCell>
                <mxCell id="13" value="&lt;span style=&quot;font-size: 12px;&quot;&gt;wilderness-data.js&lt;/span&gt;" style="rounded=0;whiteSpace=wrap;html=1;fontSize=30;" vertex="1" parent="1">
                    <mxGeometry x="80" y="340" width="140" height="30" as="geometry"/>
                </mxCell>
                <mxCell id="14" value="&lt;font style=&quot;font-size: 12px;&quot;&gt;wilderness-functions.js&lt;/font&gt;" style="rounded=0;whiteSpace=wrap;html=1;fontSize=30;" vertex="1" parent="1">
                    <mxGeometry x="670" y="340" width="140" height="30" as="geometry"/>
                </mxCell>
                <mxCell id="15" value="" style="endArrow=none;html=1;fontSize=12;entryX=0.443;entryY=1.05;entryDx=0;entryDy=0;entryPerimeter=0;exitX=0.5;exitY=0;exitDx=0;exitDy=0;" edge="1" parent="1" source="132" target="13">
                    <mxGeometry width="50" height="50" relative="1" as="geometry">
                        <mxPoint x="142" y="1481.4285714285713" as="sourcePoint"/>
                        <mxPoint x="500" y="510" as="targetPoint"/>
                    </mxGeometry>
                </mxCell>
                <mxCell id="17" value="" style="endArrow=classic;html=1;fontSize=12;" edge="1" parent="1">
                    <mxGeometry relative="1" as="geometry">
                        <mxPoint x="140" y="420" as="sourcePoint"/>
                        <mxPoint x="420" y="420" as="targetPoint"/>
                    </mxGeometry>
                </mxCell>
                <mxCell id="18" value="Rivers Array" style="edgeLabel;resizable=0;html=1;align=center;verticalAlign=middle;fontSize=12;" connectable="0" vertex="1" parent="17">
                    <mxGeometry relative="1" as="geometry"/>
                </mxCell>
                <mxCell id="19" value="" style="endArrow=none;html=1;fontSize=12;entryX=0.5;entryY=1;entryDx=0;entryDy=0;exitX=0.417;exitY=-0.033;exitDx=0;exitDy=0;exitPerimeter=0;" edge="1" parent="1" source="133" target="12">
                    <mxGeometry width="50" height="50" relative="1" as="geometry">
                        <mxPoint x="420" y="1481" as="sourcePoint"/>
                        <mxPoint x="500" y="510" as="targetPoint"/>
                    </mxGeometry>
                </mxCell>
                <mxCell id="20" value="" style="endArrow=classic;html=1;fontSize=12;" edge="1" parent="1">
                    <mxGeometry relative="1" as="geometry">
                        <mxPoint x="140" y="400" as="sourcePoint"/>
                        <mxPoint x="420" y="400" as="targetPoint"/>
                    </mxGeometry>
                </mxCell>
                <mxCell id="21" value="Trails Array" style="edgeLabel;resizable=0;html=1;align=center;verticalAlign=middle;fontSize=12;" connectable="0" vertex="1" parent="20">
                    <mxGeometry relative="1" as="geometry"/>
                </mxCell>
                <mxCell id="24" value="" style="endArrow=none;html=1;fontSize=12;entryX=0.5;entryY=1;entryDx=0;entryDy=0;exitX=0.5;exitY=0;exitDx=0;exitDy=0;" edge="1" parent="1" source="134">
                    <mxGeometry width="50" height="50" relative="1" as="geometry">
                        <mxPoint x="740" y="840" as="sourcePoint"/>
                        <mxPoint x="740" y="370" as="targetPoint"/>
                    </mxGeometry>
                </mxCell>
                <mxCell id="35" value="" style="group" vertex="1" connectable="0" parent="1">
                    <mxGeometry x="420" y="430" width="320" height="70" as="geometry"/>
                </mxCell>
                <mxCell id="23" value="" style="points=[[0.25,0,0],[0.5,0,0],[0.75,0,0],[1,0.25,0],[1,0.5,0],[1,0.75,0],[0.75,1,0],[0.5,1,0],[0.25,1,0],[0,0.75,0],[0,0.5,0],[0,0.25,0]];shape=mxgraph.bpmn.task;whiteSpace=wrap;rectStyle=rounded;size=10;html=1;taskMarker=abstract;isLoopStandard=1;fontSize=12;" vertex="1" parent="35">
                    <mxGeometry width="320" height="70" as="geometry"/>
                </mxCell>
                <mxCell id="29" value="" style="endArrow=classic;html=1;fontSize=11;dashed=1;" edge="1" parent="35">
                    <mxGeometry relative="1" as="geometry">
                        <mxPoint x="319" y="40" as="sourcePoint"/>
                        <mxPoint y="40" as="targetPoint"/>
                        <Array as="points"/>
                    </mxGeometry>
                </mxCell>
                <mxCell id="30" value="Return sum of total trail miles rounded to an integer" style="edgeLabel;resizable=0;html=1;align=center;verticalAlign=middle;fontSize=11;" connectable="0" vertex="1" parent="29">
                    <mxGeometry relative="1" as="geometry">
                        <mxPoint x="1" as="offset"/>
                    </mxGeometry>
                </mxCell>
                <mxCell id="33" value="" style="endArrow=classic;html=1;fontSize=11;" edge="1" parent="35">
                    <mxGeometry relative="1" as="geometry">
                        <mxPoint x="300" y="20" as="sourcePoint"/>
                        <mxPoint x="320" y="20" as="targetPoint"/>
                        <Array as="points">
                            <mxPoint y="20"/>
                        </Array>
                    </mxGeometry>
                </mxCell>
                <mxCell id="34" value="&lt;span style=&quot;background-color: rgb(251, 251, 251);&quot;&gt;Invoke &lt;font color=&quot;#4d9900&quot;&gt;totalTrailMiles&lt;/font&gt;() to add miles to each trail to sum&lt;/span&gt;" style="edgeLabel;resizable=0;html=1;align=center;verticalAlign=middle;fontSize=11;" connectable="0" vertex="1" parent="33">
                    <mxGeometry relative="1" as="geometry">
                        <mxPoint x="145" as="offset"/>
                    </mxGeometry>
                </mxCell>
                <mxCell id="36" value="" style="group" vertex="1" connectable="0" parent="1">
                    <mxGeometry x="420" y="515" width="320" height="70" as="geometry"/>
                </mxCell>
                <mxCell id="37" value="" style="points=[[0.25,0,0],[0.5,0,0],[0.75,0,0],[1,0.25,0],[1,0.5,0],[1,0.75,0],[0.75,1,0],[0.5,1,0],[0.25,1,0],[0,0.75,0],[0,0.5,0],[0,0.25,0]];shape=mxgraph.bpmn.task;whiteSpace=wrap;rectStyle=rounded;size=10;html=1;taskMarker=abstract;isLoopStandard=1;fontSize=12;" vertex="1" parent="36">
                    <mxGeometry width="320" height="70" as="geometry"/>
                </mxCell>
                <mxCell id="38" value="" style="endArrow=classic;html=1;fontSize=11;dashed=1;" edge="1" parent="36">
                    <mxGeometry relative="1" as="geometry">
                        <mxPoint x="319" y="40" as="sourcePoint"/>
                        <mxPoint y="40" as="targetPoint"/>
                        <Array as="points"/>
                    </mxGeometry>
                </mxCell>
                <mxCell id="39" value="Return numeric value of shortest trail distance" style="edgeLabel;resizable=0;html=1;align=center;verticalAlign=middle;fontSize=11;" connectable="0" vertex="1" parent="38">
                    <mxGeometry relative="1" as="geometry">
                        <mxPoint x="1" as="offset"/>
                    </mxGeometry>
                </mxCell>
                <mxCell id="40" value="" style="endArrow=classic;html=1;fontSize=11;" edge="1" parent="36">
                    <mxGeometry relative="1" as="geometry">
                        <mxPoint x="300" y="20" as="sourcePoint"/>
                        <mxPoint x="320" y="20" as="targetPoint"/>
                        <Array as="points">
                            <mxPoint y="20"/>
                        </Array>
                    </mxGeometry>
                </mxCell>
                <mxCell id="41" value="&lt;span style=&quot;background-color: rgb(251, 251, 251);&quot;&gt;Invoke &lt;font color=&quot;#4d9900&quot;&gt;shortyTrail&lt;/font&gt;() to compare trail distances to infinity&lt;/span&gt;" style="edgeLabel;resizable=0;html=1;align=center;verticalAlign=middle;fontSize=11;" connectable="0" vertex="1" parent="40">
                    <mxGeometry relative="1" as="geometry">
                        <mxPoint x="145" as="offset"/>
                    </mxGeometry>
                </mxCell>
                <mxCell id="42" value="" style="group" vertex="1" connectable="0" parent="1">
                    <mxGeometry x="420" y="600" width="320" height="70" as="geometry"/>
                </mxCell>
                <mxCell id="43" value="" style="points=[[0.25,0,0],[0.5,0,0],[0.75,0,0],[1,0.25,0],[1,0.5,0],[1,0.75,0],[0.75,1,0],[0.5,1,0],[0.25,1,0],[0,0.75,0],[0,0.5,0],[0,0.25,0]];shape=mxgraph.bpmn.task;whiteSpace=wrap;rectStyle=rounded;size=10;html=1;taskMarker=abstract;isLoopStandard=1;fontSize=12;" vertex="1" parent="42">
                    <mxGeometry width="320" height="70" as="geometry"/>
                </mxCell>
                <mxCell id="44" value="" style="endArrow=classic;html=1;fontSize=11;dashed=1;" edge="1" parent="42">
                    <mxGeometry relative="1" as="geometry">
                        <mxPoint x="319" y="40" as="sourcePoint"/>
                        <mxPoint y="40" as="targetPoint"/>
                        <Array as="points"/>
                    </mxGeometry>
                </mxCell>
                <mxCell id="45" value="Return numeric value of longest trail distance" style="edgeLabel;resizable=0;html=1;align=center;verticalAlign=middle;fontSize=11;" connectable="0" vertex="1" parent="44">
                    <mxGeometry relative="1" as="geometry">
                        <mxPoint x="1" as="offset"/>
                    </mxGeometry>
                </mxCell>
                <mxCell id="46" value="" style="endArrow=classic;html=1;fontSize=11;" edge="1" parent="42">
                    <mxGeometry relative="1" as="geometry">
                        <mxPoint x="300" y="20" as="sourcePoint"/>
                        <mxPoint x="320" y="20" as="targetPoint"/>
                        <Array as="points">
                            <mxPoint y="20"/>
                        </Array>
                    </mxGeometry>
                </mxCell>
                <mxCell id="47" value="&lt;span style=&quot;background-color: rgb(251, 251, 251);&quot;&gt;Invoke &lt;font color=&quot;#4d9900&quot;&gt;longTrail&lt;/font&gt;()&amp;nbsp; to compare trail distances to zero&lt;/span&gt;" style="edgeLabel;resizable=0;html=1;align=center;verticalAlign=middle;fontSize=11;" connectable="0" vertex="1" parent="46">
                    <mxGeometry relative="1" as="geometry">
                        <mxPoint x="145" as="offset"/>
                    </mxGeometry>
                </mxCell>
                <mxCell id="48" value="" style="group" vertex="1" connectable="0" parent="1">
                    <mxGeometry x="420" y="690" width="320" height="70" as="geometry"/>
                </mxCell>
                <mxCell id="49" value="" style="points=[[0.25,0,0],[0.5,0,0],[0.75,0,0],[1,0.25,0],[1,0.5,0],[1,0.75,0],[0.75,1,0],[0.5,1,0],[0.25,1,0],[0,0.75,0],[0,0.5,0],[0,0.25,0]];shape=mxgraph.bpmn.task;whiteSpace=wrap;rectStyle=rounded;size=10;html=1;taskMarker=abstract;isLoopStandard=1;fontSize=12;" vertex="1" parent="48">
                    <mxGeometry width="320" height="70" as="geometry"/>
                </mxCell>
                <mxCell id="50" value="" style="endArrow=classic;html=1;fontSize=11;dashed=1;" edge="1" parent="48">
                    <mxGeometry relative="1" as="geometry">
                        <mxPoint x="319" y="40" as="sourcePoint"/>
                        <mxPoint y="40" as="targetPoint"/>
                        <Array as="points"/>
                    </mxGeometry>
                </mxCell>
                <mxCell id="51" value="Return sum of total river miles&amp;nbsp;" style="edgeLabel;resizable=0;html=1;align=center;verticalAlign=middle;fontSize=11;" connectable="0" vertex="1" parent="50">
                    <mxGeometry relative="1" as="geometry">
                        <mxPoint x="1" as="offset"/>
                    </mxGeometry>
                </mxCell>
                <mxCell id="52" value="" style="endArrow=classic;html=1;fontSize=11;" edge="1" parent="48">
                    <mxGeometry relative="1" as="geometry">
                        <mxPoint x="300" y="20" as="sourcePoint"/>
                        <mxPoint x="320" y="20" as="targetPoint"/>
                        <Array as="points">
                            <mxPoint y="20"/>
                        </Array>
                    </mxGeometry>
                </mxCell>
                <mxCell id="53" value="&lt;span style=&quot;background-color: rgb(251, 251, 251);&quot;&gt;Invoke &lt;font color=&quot;#4d9900&quot;&gt;totalRiverMiles&lt;/font&gt;() to add miles to each river to sum&lt;/span&gt;" style="edgeLabel;resizable=0;html=1;align=center;verticalAlign=middle;fontSize=11;" connectable="0" vertex="1" parent="52">
                    <mxGeometry relative="1" as="geometry">
                        <mxPoint x="145" as="offset"/>
                    </mxGeometry>
                </mxCell>
                <mxCell id="54" value="" style="group" vertex="1" connectable="0" parent="1">
                    <mxGeometry x="420" y="780" width="320" height="70" as="geometry"/>
                </mxCell>
                <mxCell id="55" value="" style="points=[[0.25,0,0],[0.5,0,0],[0.75,0,0],[1,0.25,0],[1,0.5,0],[1,0.75,0],[0.75,1,0],[0.5,1,0],[0.25,1,0],[0,0.75,0],[0,0.5,0],[0,0.25,0]];shape=mxgraph.bpmn.task;whiteSpace=wrap;rectStyle=rounded;size=10;html=1;taskMarker=abstract;isLoopStandard=1;fontSize=12;" vertex="1" parent="54">
                    <mxGeometry width="320" height="70" as="geometry"/>
                </mxCell>
                <mxCell id="56" value="" style="endArrow=classic;html=1;fontSize=11;dashed=1;" edge="1" parent="54">
                    <mxGeometry relative="1" as="geometry">
                        <mxPoint x="319" y="40" as="sourcePoint"/>
                        <mxPoint y="40" as="targetPoint"/>
                        <Array as="points"/>
                    </mxGeometry>
                </mxCell>
                <mxCell id="57" value="Return numeric value of longest river distance" style="edgeLabel;resizable=0;html=1;align=center;verticalAlign=middle;fontSize=11;" connectable="0" vertex="1" parent="56">
                    <mxGeometry relative="1" as="geometry">
                        <mxPoint x="1" as="offset"/>
                    </mxGeometry>
                </mxCell>
                <mxCell id="58" value="" style="endArrow=classic;html=1;fontSize=11;" edge="1" parent="54">
                    <mxGeometry relative="1" as="geometry">
                        <mxPoint x="300" y="20" as="sourcePoint"/>
                        <mxPoint x="320" y="20" as="targetPoint"/>
                        <Array as="points">
                            <mxPoint y="20"/>
                        </Array>
                    </mxGeometry>
                </mxCell>
                <mxCell id="59" value="&lt;span style=&quot;background-color: rgb(251, 251, 251);&quot;&gt;Invoke &lt;font color=&quot;#4d9900&quot;&gt;longRiver&lt;/font&gt;() to compare river distances to zero&lt;/span&gt;" style="edgeLabel;resizable=0;html=1;align=center;verticalAlign=middle;fontSize=11;" connectable="0" vertex="1" parent="58">
                    <mxGeometry relative="1" as="geometry">
                        <mxPoint x="145" as="offset"/>
                    </mxGeometry>
                </mxCell>
                <mxCell id="60" value="" style="group" vertex="1" connectable="0" parent="1">
                    <mxGeometry x="420" y="870" width="320" height="70" as="geometry"/>
                </mxCell>
                <mxCell id="61" value="" style="points=[[0.25,0,0],[0.5,0,0],[0.75,0,0],[1,0.25,0],[1,0.5,0],[1,0.75,0],[0.75,1,0],[0.5,1,0],[0.25,1,0],[0,0.75,0],[0,0.5,0],[0,0.25,0]];shape=mxgraph.bpmn.task;whiteSpace=wrap;rectStyle=rounded;size=10;html=1;taskMarker=abstract;isLoopStandard=1;fontSize=12;" vertex="1" parent="60">
                    <mxGeometry width="320" height="70" as="geometry"/>
                </mxCell>
                <mxCell id="62" value="" style="endArrow=classic;html=1;fontSize=11;dashed=1;" edge="1" parent="60">
                    <mxGeometry relative="1" as="geometry">
                        <mxPoint x="319" y="40" as="sourcePoint"/>
                        <mxPoint y="40" as="targetPoint"/>
                        <Array as="points"/>
                    </mxGeometry>
                </mxCell>
                <mxCell id="63" value="Return numeric value of shortest river distance" style="edgeLabel;resizable=0;html=1;align=center;verticalAlign=middle;fontSize=11;" connectable="0" vertex="1" parent="62">
                    <mxGeometry relative="1" as="geometry">
                        <mxPoint x="1" as="offset"/>
                    </mxGeometry>
                </mxCell>
                <mxCell id="64" value="" style="endArrow=classic;html=1;fontSize=11;" edge="1" parent="60">
                    <mxGeometry relative="1" as="geometry">
                        <mxPoint x="300" y="20" as="sourcePoint"/>
                        <mxPoint x="320" y="20" as="targetPoint"/>
                        <Array as="points">
                            <mxPoint y="20"/>
                        </Array>
                    </mxGeometry>
                </mxCell>
                <mxCell id="65" value="&lt;span style=&quot;background-color: rgb(251, 251, 251);&quot;&gt;Invoke &lt;font color=&quot;#4d9900&quot;&gt;shortyRiver&lt;/font&gt;() to compare river distances to infinity&lt;/span&gt;" style="edgeLabel;resizable=0;html=1;align=center;verticalAlign=middle;fontSize=11;" connectable="0" vertex="1" parent="64">
                    <mxGeometry relative="1" as="geometry">
                        <mxPoint x="145" as="offset"/>
                    </mxGeometry>
                </mxCell>
                <mxCell id="66" value="" style="group" vertex="1" connectable="0" parent="1">
                    <mxGeometry x="420" y="960" width="320" height="70" as="geometry"/>
                </mxCell>
                <mxCell id="67" value="" style="points=[[0.25,0,0],[0.5,0,0],[0.75,0,0],[1,0.25,0],[1,0.5,0],[1,0.75,0],[0.75,1,0],[0.5,1,0],[0.25,1,0],[0,0.75,0],[0,0.5,0],[0,0.25,0]];shape=mxgraph.bpmn.task;whiteSpace=wrap;rectStyle=rounded;size=10;html=1;taskMarker=abstract;isLoopStandard=1;fontSize=12;" vertex="1" parent="66">
                    <mxGeometry width="320" height="70" as="geometry"/>
                </mxCell>
                <mxCell id="68" value="" style="endArrow=classic;html=1;fontSize=11;dashed=1;" edge="1" parent="66">
                    <mxGeometry relative="1" as="geometry">
                        <mxPoint x="319" y="40" as="sourcePoint"/>
                        <mxPoint y="40" as="targetPoint"/>
                        <Array as="points"/>
                    </mxGeometry>
                </mxCell>
                <mxCell id="69" value="Export list of trails with &quot;$&quot; as&amp;nbsp; &lt;font color=&quot;#6600cc&quot;&gt;leastExpensiveTrailList&lt;/font&gt;" style="edgeLabel;resizable=0;html=1;align=center;verticalAlign=middle;fontSize=11;" connectable="0" vertex="1" parent="68">
                    <mxGeometry relative="1" as="geometry">
                        <mxPoint x="1" as="offset"/>
                    </mxGeometry>
                </mxCell>
                <mxCell id="70" value="" style="endArrow=classic;html=1;fontSize=11;" edge="1" parent="66">
                    <mxGeometry relative="1" as="geometry">
                        <mxPoint x="300" y="20" as="sourcePoint"/>
                        <mxPoint x="320" y="20" as="targetPoint"/>
                        <Array as="points">
                            <mxPoint y="20"/>
                        </Array>
                    </mxGeometry>
                </mxCell>
                <mxCell id="71" value="&lt;span style=&quot;background-color: rgb(251, 251, 251);&quot;&gt;Invoke &lt;font color=&quot;#4d9900&quot;&gt;leastExpensiveTrails&lt;/font&gt;() to find trails with &quot;$&quot;&lt;/span&gt;" style="edgeLabel;resizable=0;html=1;align=center;verticalAlign=middle;fontSize=11;" connectable="0" vertex="1" parent="70">
                    <mxGeometry relative="1" as="geometry">
                        <mxPoint x="145" as="offset"/>
                    </mxGeometry>
                </mxCell>
                <mxCell id="72" value="" style="group" vertex="1" connectable="0" parent="1">
                    <mxGeometry x="420" y="1050" width="320" height="70" as="geometry"/>
                </mxCell>
                <mxCell id="73" value="" style="points=[[0.25,0,0],[0.5,0,0],[0.75,0,0],[1,0.25,0],[1,0.5,0],[1,0.75,0],[0.75,1,0],[0.5,1,0],[0.25,1,0],[0,0.75,0],[0,0.5,0],[0,0.25,0]];shape=mxgraph.bpmn.task;whiteSpace=wrap;rectStyle=rounded;size=10;html=1;taskMarker=abstract;isLoopStandard=1;fontSize=12;" vertex="1" parent="72">
                    <mxGeometry width="320" height="70" as="geometry"/>
                </mxCell>
                <mxCell id="74" value="" style="endArrow=classic;html=1;fontSize=11;dashed=1;" edge="1" parent="72">
                    <mxGeometry relative="1" as="geometry">
                        <mxPoint x="319" y="40" as="sourcePoint"/>
                        <mxPoint y="40" as="targetPoint"/>
                        <Array as="points"/>
                    </mxGeometry>
                </mxCell>
                <mxCell id="75" value="&lt;font style=&quot;font-size: 10px;&quot;&gt;Return list of trails with &quot;$$$$&quot; or &quot;$$$$$&quot; as &lt;font color=&quot;#4c0099&quot;&gt;expensiveTrailList&lt;/font&gt;&lt;/font&gt;" style="edgeLabel;resizable=0;html=1;align=center;verticalAlign=middle;fontSize=11;" connectable="0" vertex="1" parent="74">
                    <mxGeometry relative="1" as="geometry">
                        <mxPoint x="1" as="offset"/>
                    </mxGeometry>
                </mxCell>
                <mxCell id="76" value="" style="endArrow=classic;html=1;fontSize=11;" edge="1" parent="72">
                    <mxGeometry relative="1" as="geometry">
                        <mxPoint x="300" y="20" as="sourcePoint"/>
                        <mxPoint x="320" y="20" as="targetPoint"/>
                        <Array as="points">
                            <mxPoint y="20"/>
                        </Array>
                    </mxGeometry>
                </mxCell>
                <mxCell id="77" value="&lt;span style=&quot;background-color: rgb(251, 251, 251);&quot;&gt;Invoke &lt;font color=&quot;#4d9900&quot;&gt;expensiveTrails&lt;/font&gt;() to find trails with &quot;$$$$&quot; or &quot;$$$$$&quot;&lt;/span&gt;" style="edgeLabel;resizable=0;html=1;align=center;verticalAlign=middle;fontSize=11;" connectable="0" vertex="1" parent="76">
                    <mxGeometry relative="1" as="geometry">
                        <mxPoint x="145" as="offset"/>
                    </mxGeometry>
                </mxCell>
                <mxCell id="78" value="" style="group" vertex="1" connectable="0" parent="1">
                    <mxGeometry x="420" y="1140" width="320" height="70" as="geometry"/>
                </mxCell>
                <mxCell id="79" value="" style="points=[[0.25,0,0],[0.5,0,0],[0.75,0,0],[1,0.25,0],[1,0.5,0],[1,0.75,0],[0.75,1,0],[0.5,1,0],[0.25,1,0],[0,0.75,0],[0,0.5,0],[0,0.25,0]];shape=mxgraph.bpmn.task;whiteSpace=wrap;rectStyle=rounded;size=10;html=1;taskMarker=abstract;isLoopStandard=1;fontSize=12;" vertex="1" parent="78">
                    <mxGeometry width="320" height="70" as="geometry"/>
                </mxCell>
                <mxCell id="80" value="" style="endArrow=classic;html=1;fontSize=11;dashed=1;" edge="1" parent="78">
                    <mxGeometry relative="1" as="geometry">
                        <mxPoint x="319" y="40" as="sourcePoint"/>
                        <mxPoint y="40" as="targetPoint"/>
                        <Array as="points"/>
                    </mxGeometry>
                </mxCell>
                <mxCell id="81" value="Return list of rivers &amp;gt;= &quot;$$$$&quot; as &lt;font color=&quot;#4c0099&quot;&gt;expensiveRiverList&lt;/font&gt;" style="edgeLabel;resizable=0;html=1;align=center;verticalAlign=middle;fontSize=11;" connectable="0" vertex="1" parent="80">
                    <mxGeometry relative="1" as="geometry">
                        <mxPoint x="1" as="offset"/>
                    </mxGeometry>
                </mxCell>
                <mxCell id="82" value="" style="endArrow=classic;html=1;fontSize=11;" edge="1" parent="78">
                    <mxGeometry relative="1" as="geometry">
                        <mxPoint x="300" y="20" as="sourcePoint"/>
                        <mxPoint x="320" y="20" as="targetPoint"/>
                        <Array as="points">
                            <mxPoint y="20"/>
                        </Array>
                    </mxGeometry>
                </mxCell>
                <mxCell id="83" value="&lt;span style=&quot;background-color: rgb(251, 251, 251);&quot;&gt;Invoke &lt;font color=&quot;#4d9900&quot;&gt;expensiveRivers&lt;/font&gt;() to find rivers &amp;gt;= &quot;$$$$&quot;&lt;/span&gt;" style="edgeLabel;resizable=0;html=1;align=center;verticalAlign=middle;fontSize=11;" connectable="0" vertex="1" parent="82">
                    <mxGeometry relative="1" as="geometry">
                        <mxPoint x="145" as="offset"/>
                    </mxGeometry>
                </mxCell>
                <mxCell id="84" value="" style="group" vertex="1" connectable="0" parent="1">
                    <mxGeometry x="420" y="1230" width="320" height="70" as="geometry"/>
                </mxCell>
                <mxCell id="85" value="" style="points=[[0.25,0,0],[0.5,0,0],[0.75,0,0],[1,0.25,0],[1,0.5,0],[1,0.75,0],[0.75,1,0],[0.5,1,0],[0.25,1,0],[0,0.75,0],[0,0.5,0],[0,0.25,0]];shape=mxgraph.bpmn.task;whiteSpace=wrap;rectStyle=rounded;size=10;html=1;taskMarker=abstract;isLoopStandard=1;fontSize=12;" vertex="1" parent="84">
                    <mxGeometry width="320" height="70" as="geometry"/>
                </mxCell>
                <mxCell id="86" value="" style="endArrow=classic;html=1;fontSize=11;dashed=1;" edge="1" parent="84">
                    <mxGeometry relative="1" as="geometry">
                        <mxPoint x="319" y="40" as="sourcePoint"/>
                        <mxPoint y="40" as="targetPoint"/>
                        <Array as="points"/>
                    </mxGeometry>
                </mxCell>
                <mxCell id="87" value="Return list of rivers with &quot;$&quot; as &lt;font color=&quot;#4c0099&quot;&gt;leastExpensiveRiverList&lt;/font&gt;" style="edgeLabel;resizable=0;html=1;align=center;verticalAlign=middle;fontSize=11;" connectable="0" vertex="1" parent="86">
                    <mxGeometry relative="1" as="geometry">
                        <mxPoint x="1" as="offset"/>
                    </mxGeometry>
                </mxCell>
                <mxCell id="88" value="" style="endArrow=classic;html=1;fontSize=11;" edge="1" parent="84">
                    <mxGeometry relative="1" as="geometry">
                        <mxPoint x="300" y="20" as="sourcePoint"/>
                        <mxPoint x="320" y="20" as="targetPoint"/>
                        <Array as="points">
                            <mxPoint y="20"/>
                        </Array>
                    </mxGeometry>
                </mxCell>
                <mxCell id="89" value="&lt;span style=&quot;background-color: rgb(251, 251, 251);&quot;&gt;Invoke &lt;font color=&quot;#4d9900&quot;&gt;leastExpensiveRivers&lt;/font&gt;&lt;font color=&quot;#006600&quot;&gt;()&lt;/font&gt; to find rivers with &quot;$&quot;&lt;/span&gt;" style="edgeLabel;resizable=0;html=1;align=center;verticalAlign=middle;fontSize=11;" connectable="0" vertex="1" parent="88">
                    <mxGeometry relative="1" as="geometry">
                        <mxPoint x="145" as="offset"/>
                    </mxGeometry>
                </mxCell>
                <mxCell id="118" value="10" style="text;html=1;strokeColor=none;fillColor=none;align=center;verticalAlign=middle;whiteSpace=wrap;rounded=0;fontSize=11;" vertex="1" parent="84">
                    <mxGeometry x="5" y="-10" width="10" height="10" as="geometry"/>
                </mxCell>
                <mxCell id="90" value="" style="group" vertex="1" connectable="0" parent="1">
                    <mxGeometry x="420" y="1320" width="320" height="70" as="geometry"/>
                </mxCell>
                <mxCell id="91" value="" style="points=[[0.25,0,0],[0.5,0,0],[0.75,0,0],[1,0.25,0],[1,0.5,0],[1,0.75,0],[0.75,1,0],[0.5,1,0],[0.25,1,0],[0,0.75,0],[0,0.5,0],[0,0.25,0]];shape=mxgraph.bpmn.task;whiteSpace=wrap;rectStyle=rounded;size=10;html=1;taskMarker=abstract;isLoopStandard=1;fontSize=12;" vertex="1" parent="90">
                    <mxGeometry width="320" height="70" as="geometry"/>
                </mxCell>
                <mxCell id="92" value="" style="endArrow=classic;html=1;fontSize=11;dashed=1;" edge="1" parent="90">
                    <mxGeometry relative="1" as="geometry">
                        <mxPoint x="319" y="40" as="sourcePoint"/>
                        <mxPoint y="40" as="targetPoint"/>
                        <Array as="points"/>
                    </mxGeometry>
                </mxCell>
                <mxCell id="93" value="console.log sentence with details" style="edgeLabel;resizable=0;html=1;align=center;verticalAlign=middle;fontSize=11;" connectable="0" vertex="1" parent="92">
                    <mxGeometry relative="1" as="geometry">
                        <mxPoint x="1" as="offset"/>
                    </mxGeometry>
                </mxCell>
                <mxCell id="94" value="" style="endArrow=classic;html=1;fontSize=11;" edge="1" parent="90">
                    <mxGeometry relative="1" as="geometry">
                        <mxPoint x="300" y="20" as="sourcePoint"/>
                        <mxPoint x="320" y="20" as="targetPoint"/>
                        <Array as="points">
                            <mxPoint y="20"/>
                        </Array>
                    </mxGeometry>
                </mxCell>
                <mxCell id="95" value="&lt;p style=&quot;line-height: 0%;&quot;&gt;&lt;span style=&quot;background-color: rgb(251, 251, 251);&quot;&gt;&lt;font style=&quot;font-size: 8px;&quot;&gt;Invoke &lt;font color=&quot;#009900&quot;&gt;trailDetails()&lt;/font&gt; to pull name, starting location, length and plant of each trail&amp;nbsp;&lt;/font&gt;&lt;/span&gt;&lt;/p&gt;" style="edgeLabel;resizable=0;html=1;align=center;verticalAlign=middle;fontSize=11;" connectable="0" vertex="1" parent="94">
                    <mxGeometry relative="1" as="geometry">
                        <mxPoint x="145" as="offset"/>
                    </mxGeometry>
                </mxCell>
                <mxCell id="96" value="1" style="text;html=1;strokeColor=none;fillColor=none;align=center;verticalAlign=middle;whiteSpace=wrap;rounded=0;fontSize=11;" vertex="1" parent="1">
                    <mxGeometry x="425" y="420" width="10" height="10" as="geometry"/>
                </mxCell>
                <mxCell id="99" value="2" style="text;html=1;strokeColor=none;fillColor=none;align=center;verticalAlign=middle;whiteSpace=wrap;rounded=0;fontSize=11;" vertex="1" parent="1">
                    <mxGeometry x="425" y="505" width="10" height="10" as="geometry"/>
                </mxCell>
                <mxCell id="100" value="6" style="text;html=1;strokeColor=none;fillColor=none;align=center;verticalAlign=middle;whiteSpace=wrap;rounded=0;fontSize=11;" vertex="1" parent="1">
                    <mxGeometry x="425" y="860" width="10" height="10" as="geometry"/>
                </mxCell>
                <mxCell id="101" value="7" style="text;html=1;strokeColor=none;fillColor=none;align=center;verticalAlign=middle;whiteSpace=wrap;rounded=0;fontSize=11;" vertex="1" parent="1">
                    <mxGeometry x="425" y="950" width="10" height="10" as="geometry"/>
                </mxCell>
                <mxCell id="102" value="8" style="text;html=1;strokeColor=none;fillColor=none;align=center;verticalAlign=middle;whiteSpace=wrap;rounded=0;fontSize=11;" vertex="1" parent="1">
                    <mxGeometry x="425" y="1040" width="10" height="10" as="geometry"/>
                </mxCell>
                <mxCell id="103" value="5" style="text;html=1;strokeColor=none;fillColor=none;align=center;verticalAlign=middle;whiteSpace=wrap;rounded=0;fontSize=11;" vertex="1" parent="1">
                    <mxGeometry x="425" y="770" width="10" height="10" as="geometry"/>
                </mxCell>
                <mxCell id="107" value="4" style="text;html=1;strokeColor=none;fillColor=none;align=center;verticalAlign=middle;whiteSpace=wrap;rounded=0;fontSize=11;" vertex="1" parent="1">
                    <mxGeometry x="425" y="680" width="10" height="10" as="geometry"/>
                </mxCell>
                <mxCell id="108" value="3" style="text;html=1;strokeColor=none;fillColor=none;align=center;verticalAlign=middle;whiteSpace=wrap;rounded=0;fontSize=11;" vertex="1" parent="1">
                    <mxGeometry x="425" y="590" width="10" height="10" as="geometry"/>
                </mxCell>
                <mxCell id="116" value="9" style="text;html=1;strokeColor=none;fillColor=none;align=center;verticalAlign=middle;whiteSpace=wrap;rounded=0;fontSize=11;" vertex="1" parent="1">
                    <mxGeometry x="425" y="1130" width="10" height="10" as="geometry"/>
                </mxCell>
                <mxCell id="117" value="11" style="text;html=1;strokeColor=none;fillColor=none;align=center;verticalAlign=middle;whiteSpace=wrap;rounded=0;fontSize=11;" vertex="1" parent="1">
                    <mxGeometry x="425" y="1310" width="10" height="10" as="geometry"/>
                </mxCell>
                <mxCell id="119" value="" style="group" vertex="1" connectable="0" parent="1">
                    <mxGeometry x="420" y="1410" width="320" height="60" as="geometry"/>
                </mxCell>
                <mxCell id="120" value="" style="points=[[0.25,0,0],[0.5,0,0],[0.75,0,0],[1,0.25,0],[1,0.5,0],[1,0.75,0],[0.75,1,0],[0.5,1,0],[0.25,1,0],[0,0.75,0],[0,0.5,0],[0,0.25,0]];shape=mxgraph.bpmn.task;whiteSpace=wrap;rectStyle=rounded;size=10;html=1;taskMarker=abstract;isLoopStandard=1;fontSize=12;" vertex="1" parent="119">
                    <mxGeometry width="320" height="60" as="geometry"/>
                </mxCell>
                <mxCell id="121" value="" style="endArrow=classic;html=1;fontSize=11;dashed=1;" edge="1" parent="119">
                    <mxGeometry relative="1" as="geometry">
                        <mxPoint x="319" y="34.285714285714285" as="sourcePoint"/>
                        <mxPoint y="34.285714285714285" as="targetPoint"/>
                        <Array as="points"/>
                    </mxGeometry>
                </mxCell>
                <mxCell id="122" value="console.log sentence with details" style="edgeLabel;resizable=0;html=1;align=center;verticalAlign=middle;fontSize=11;" connectable="0" vertex="1" parent="121">
                    <mxGeometry relative="1" as="geometry">
                        <mxPoint x="1" as="offset"/>
                    </mxGeometry>
                </mxCell>
                <mxCell id="123" value="" style="endArrow=classic;html=1;fontSize=11;" edge="1" parent="119">
                    <mxGeometry relative="1" as="geometry">
                        <mxPoint x="300" y="17.142857142857142" as="sourcePoint"/>
                        <mxPoint x="320" y="17.142857142857142" as="targetPoint"/>
                        <Array as="points">
                            <mxPoint y="17.142857142857142"/>
                        </Array>
                    </mxGeometry>
                </mxCell>
                <mxCell id="124" value="&lt;p style=&quot;line-height: 0%;&quot;&gt;&lt;span style=&quot;background-color: rgb(251, 251, 251);&quot;&gt;&lt;font style=&quot;font-size: 8px;&quot;&gt;Invoke &lt;font color=&quot;#009900&quot;&gt;riverDetails()&lt;/font&gt; to pull name, starting location, length and fish of each river&amp;nbsp;&lt;/font&gt;&lt;/span&gt;&lt;/p&gt;" style="edgeLabel;resizable=0;html=1;align=center;verticalAlign=middle;fontSize=11;" connectable="0" vertex="1" parent="123">
                    <mxGeometry relative="1" as="geometry">
                        <mxPoint x="145" as="offset"/>
                    </mxGeometry>
                </mxCell>
                <mxCell id="125" value="12" style="text;html=1;strokeColor=none;fillColor=none;align=center;verticalAlign=middle;whiteSpace=wrap;rounded=0;fontSize=11;" vertex="1" parent="1">
                    <mxGeometry x="425" y="1400" width="10" height="10" as="geometry"/>
                </mxCell>
                <mxCell id="132" value="&lt;span style=&quot;font-size: 12px;&quot;&gt;wilderness-data.js&lt;/span&gt;" style="rounded=0;whiteSpace=wrap;html=1;fontSize=30;" vertex="1" parent="1">
                    <mxGeometry x="70" y="1490" width="140" height="30" as="geometry"/>
                </mxCell>
                <mxCell id="133" value="Adventure.js" style="rounded=0;whiteSpace=wrap;html=1;" vertex="1" parent="1">
                    <mxGeometry x="370" y="1490" width="120" height="30" as="geometry"/>
                </mxCell>
                <mxCell id="134" value="&lt;font style=&quot;font-size: 12px;&quot;&gt;wilderness-functions.js&lt;/font&gt;" style="rounded=0;whiteSpace=wrap;html=1;fontSize=30;" vertex="1" parent="1">
                    <mxGeometry x="670" y="1490" width="140" height="30" as="geometry"/>
                </mxCell>
            </root>
        </mxGraphModel>
    </diagram>
</mxfile>